Coordinates
version=1
nRows=27
nColumns=12
inDegrees=yes

Units are S.I. units (second, meters, Newtons, ...)
Angles are in degrees

endheader
time	SC_y	SC_z	SC_x	AC_y	AC_z	AC_x	GH_y	GH_z	GH_yy	EL_x	PS_y
       0.0              -26.22          18.28          12.59          37.97         -9.779          3.431         -150.0         -4.456         -55.55          45.58          69.63
   0.01311              -26.22          18.27           12.6          37.97          -9.78          3.433         -150.0         -4.446         -55.55          45.58          69.63
   0.02623              -26.22          18.27          12.61          37.97         -9.781          3.435         -150.0         -4.435         -55.55          45.59          69.63
   0.03934              -26.22          18.27          12.61          37.97         -9.783          3.437         -150.0         -4.424         -55.55          45.59          69.63
   0.05245              -26.22          18.26          12.62          37.97         -9.784          3.439         -150.0         -4.412         -55.55          45.59          69.63
   0.06556              -26.22          18.26          12.63          37.97         -9.786          3.442         -150.0           -4.4         -55.55          45.59          69.63
   0.07868              -26.21          18.25          12.64          37.96         -9.788          3.444         -150.0         -4.386         -55.55          45.59          69.63
   0.09179              -26.21          18.25          12.65          37.96          -9.79          3.447         -150.0         -4.372         -55.55          45.59          69.63
    0.1049              -26.21          18.24          12.66          37.96         -9.792           3.45         -150.1         -4.356         -55.55          45.59          69.63
     0.118              -26.21          18.24          12.67          37.96         -9.794          3.453         -150.1          -4.34         -55.56          45.59          69.63
    0.1311               -26.2          18.23          12.68          37.96         -9.796          3.456         -150.1         -4.322         -55.56          45.59          69.63
    0.1442               -26.2          18.23           12.7          37.96         -9.799           3.46         -150.1         -4.303         -55.56          45.59          69.63
    0.1574               -26.2          18.22          12.71          37.96         -9.801          3.464         -150.1         -4.282         -55.56          45.59          69.63
    0.1705              -26.19          18.21          12.73          37.96         -9.804          3.468         -150.1          -4.26         -55.56          45.59          69.63
    0.1836              -26.19           18.2          12.74          37.96         -9.808          3.472         -150.1         -4.236         -55.56          45.59          69.63
    0.1967              -26.18           18.2          12.76          37.96         -9.811          3.477         -150.1          -4.21         -55.57          45.59          69.63
    0.2098              -26.18          18.19          12.78          37.96         -9.815          3.482         -150.1         -4.181         -55.57          45.59          69.63
    0.2229              -26.17          18.18           12.8          37.96         -9.819          3.488         -150.1         -4.151         -55.57          45.59          69.63
     0.236              -26.17          18.17          12.83          37.96         -9.823          3.494         -150.1         -4.117         -55.57           45.6          69.63
    0.2491              -26.16          18.15          12.85          37.96         -9.828          3.501         -150.1          -4.08         -55.58           45.6          69.63
    0.2623              -26.15          18.14          12.88          37.96         -9.834          3.509         -150.1         -4.039         -55.58           45.6          69.63
    0.2754              -26.15          18.13          12.91          37.96          -9.84          3.517         -150.1         -3.994         -55.58           45.6          69.63
    0.2885              -26.14          18.11          12.95          37.95         -9.846          3.526         -150.1         -3.945         -55.59           45.6          69.63
    0.3016              -26.13          18.09          12.99          37.95         -9.853          3.536         -150.1          -3.89         -55.59           45.6          69.63
    0.3147              -26.12          18.07          13.03          37.95         -9.862          3.548         -150.1         -3.829          -55.6           45.6          69.63
    0.3278              -26.11          18.05          13.08          37.95         -9.871           3.56         -150.1         -3.762          -55.6          45.61          69.63
    0.3409              -26.09          18.02          13.13          37.95         -9.881          3.574         -150.1         -3.686         -55.61          45.61          69.63
